<svg width="285" height="131" viewBox="0 0 285 131" fill="none" xmlns="http://www.w3.org/2000/svg">
<path d="M0 15C0 6.71573 6.71573 0 15 0H270C278.284 0 285 6.71573 285 15V116C285 124.284 278.284 131 270 131H15C6.71572 131 0 124.284 0 116V15Z" fill="url(#paint0_linear_301_5)"/>
<path d="M68.9375 65C68.9375 70.2812 67.9219 74.7578 65.8906 78.4297C63.8594 82.1016 61.1094 84.8906 57.6406 86.7969C54.1875 88.7031 50.3125 89.6562 46.0156 89.6562C41.7031 89.6562 37.8203 88.6953 34.3672 86.7734C30.9141 84.8516 28.1719 82.0625 26.1406 78.4062C24.125 74.7344 23.1172 70.2656 23.1172 65C23.1172 59.7188 24.125 55.2422 26.1406 51.5703C28.1719 47.8984 30.9141 45.1094 34.3672 43.2031C37.8203 41.2969 41.7031 40.3438 46.0156 40.3438C50.3125 40.3438 54.1875 41.2969 57.6406 43.2031C61.1094 45.1094 63.8594 47.8984 65.8906 51.5703C67.9219 55.2422 68.9375 59.7188 68.9375 65ZM57.0781 65C57.0781 61.875 56.6328 59.2344 55.7422 57.0781C54.8672 54.9219 53.6016 53.2891 51.9453 52.1797C50.3047 51.0703 48.3281 50.5156 46.0156 50.5156C43.7187 50.5156 41.7422 51.0703 40.0859 52.1797C38.4297 53.2891 37.1562 54.9219 36.2656 57.0781C35.3906 59.2344 34.9531 61.875 34.9531 65C34.9531 68.125 35.3906 70.7656 36.2656 72.9219C37.1562 75.0781 38.4297 76.7109 40.0859 77.8203C41.7422 78.9297 43.7187 79.4844 46.0156 79.4844C48.3281 79.4844 50.3047 78.9297 51.9453 77.8203C53.6016 76.7109 54.8672 75.0781 55.7422 72.9219C56.6328 70.7656 57.0781 68.125 57.0781 65Z" fill="white"/>
<path d="M75.7109 89V53H86.8438V59.5625H87.2188C87.875 57.1875 88.9453 55.4219 90.4297 54.2656C91.9141 53.0938 93.6406 52.5078 95.6094 52.5078C96.1406 52.5078 96.6875 52.5469 97.25 52.625C97.8125 52.6875 98.3359 52.7891 98.8203 52.9297V62.8906C98.2734 62.7031 97.5547 62.5547 96.6641 62.4453C95.7891 62.3359 95.0078 62.2812 94.3203 62.2812C92.9609 62.2812 91.7344 62.5859 90.6406 63.1953C89.5625 63.7891 88.7109 64.625 88.0859 65.7031C87.4766 66.7656 87.1719 68.0156 87.1719 69.4531V89H75.7109Z" fill="white"/>
<path d="M112.285 89.6094C109.988 89.6094 107.949 89.2266 106.168 88.4609C104.402 87.6797 103.004 86.5078 101.973 84.9453C100.957 83.3672 100.449 81.3906 100.449 79.0156C100.449 77.0156 100.801 75.3281 101.504 73.9531C102.207 72.5781 103.176 71.4609 104.41 70.6016C105.645 69.7422 107.066 69.0938 108.676 68.6562C110.285 68.2031 112.004 67.8984 113.832 67.7422C115.879 67.5547 117.527 67.3594 118.777 67.1562C120.027 66.9375 120.934 66.6328 121.496 66.2422C122.074 65.8359 122.363 65.2656 122.363 64.5312V64.4141C122.363 63.2109 121.949 62.2813 121.121 61.625C120.293 60.9688 119.176 60.6406 117.77 60.6406C116.254 60.6406 115.035 60.9688 114.113 61.625C113.191 62.2813 112.605 63.1875 112.355 64.3438L101.785 63.9688C102.098 61.7812 102.902 59.8281 104.199 58.1094C105.512 56.375 107.309 55.0156 109.59 54.0312C111.887 53.0313 114.645 52.5312 117.863 52.5312C120.16 52.5312 122.277 52.8047 124.215 53.3516C126.152 53.8828 127.84 54.6641 129.277 55.6953C130.715 56.7109 131.824 57.9609 132.605 59.4453C133.402 60.9297 133.801 62.625 133.801 64.5312V89H123.02V83.9844H122.738C122.098 85.2031 121.277 86.2344 120.277 87.0781C119.293 87.9219 118.129 88.5547 116.785 88.9766C115.457 89.3984 113.957 89.6094 112.285 89.6094ZM115.824 82.1094C117.059 82.1094 118.168 81.8594 119.152 81.3594C120.152 80.8594 120.949 80.1719 121.543 79.2969C122.137 78.4062 122.434 77.375 122.434 76.2031V72.7812C122.105 72.9531 121.707 73.1094 121.238 73.25C120.785 73.3906 120.285 73.5234 119.738 73.6484C119.191 73.7734 118.629 73.8828 118.051 73.9766C117.473 74.0703 116.918 74.1562 116.387 74.2344C115.309 74.4062 114.387 74.6719 113.621 75.0312C112.871 75.3906 112.293 75.8594 111.887 76.4375C111.496 77 111.301 77.6719 111.301 78.4531C111.301 79.6406 111.723 80.5469 112.566 81.1719C113.426 81.7969 114.512 82.1094 115.824 82.1094Z" fill="white"/>
<path d="M152.27 68.4688V89H140.809V53H151.707V59.6094H152.105C152.902 57.4062 154.262 55.6797 156.184 54.4297C158.105 53.1641 160.395 52.5312 163.051 52.5312C165.582 52.5312 167.777 53.1016 169.637 54.2422C171.512 55.3672 172.965 56.9453 173.996 58.9766C175.043 60.9922 175.559 63.3516 175.543 66.0547V89H164.082V68.3047C164.098 66.3047 163.59 64.7422 162.559 63.6172C161.543 62.4922 160.129 61.9297 158.316 61.9297C157.113 61.9297 156.051 62.1953 155.129 62.7266C154.223 63.2422 153.52 63.9844 153.02 64.9531C152.535 65.9219 152.285 67.0938 152.27 68.4688Z" fill="white"/>
<path d="M199.42 103.25C195.998 103.25 193.068 102.773 190.631 101.82C188.193 100.867 186.279 99.5625 184.889 97.9062C183.498 96.25 182.662 94.375 182.381 92.2812L193.232 91.6719C193.436 92.4062 193.811 93.0469 194.357 93.5938C194.92 94.1406 195.646 94.5625 196.537 94.8594C197.443 95.1562 198.506 95.3047 199.725 95.3047C201.646 95.3047 203.232 94.8359 204.482 93.8984C205.748 92.9766 206.381 91.3594 206.381 89.0469V82.7188H205.982C205.529 83.8281 204.842 84.8203 203.92 85.6953C202.998 86.5703 201.85 87.2578 200.475 87.7578C199.115 88.2578 197.553 88.5078 195.787 88.5078C193.162 88.5078 190.756 87.8984 188.568 86.6797C186.396 85.4453 184.654 83.5391 183.342 80.9609C182.045 78.3672 181.396 75.0312 181.396 70.9531C181.396 66.75 182.068 63.2891 183.412 60.5703C184.756 57.8359 186.514 55.8125 188.686 54.5C190.873 53.1875 193.225 52.5312 195.74 52.5312C197.631 52.5312 199.248 52.8594 200.592 53.5156C201.951 54.1563 203.068 54.9844 203.943 56C204.818 57.0156 205.482 58.0703 205.936 59.1641H206.264V53H217.678V89.1406C217.678 92.1875 216.912 94.7578 215.381 96.8516C213.85 98.9453 211.709 100.531 208.959 101.609C206.209 102.703 203.029 103.25 199.42 103.25ZM199.771 80.1641C201.162 80.1641 202.35 79.7969 203.334 79.0625C204.318 78.3281 205.076 77.2734 205.607 75.8984C206.139 74.5234 206.404 72.875 206.404 70.9531C206.404 69 206.139 67.3203 205.607 65.9141C205.092 64.4922 204.334 63.3984 203.334 62.6328C202.35 61.8672 201.162 61.4844 199.771 61.4844C198.35 61.4844 197.146 61.875 196.162 62.6562C195.178 63.4375 194.428 64.5391 193.912 65.9609C193.412 67.3672 193.162 69.0312 193.162 70.9531C193.162 72.875 193.42 74.5234 193.936 75.8984C194.451 77.2734 195.193 78.3281 196.162 79.0625C197.146 79.7969 198.35 80.1641 199.771 80.1641Z" fill="white"/>
<path d="M241.812 89.6797C238.047 89.6797 234.797 88.9375 232.062 87.4531C229.344 85.9531 227.25 83.8203 225.781 81.0547C224.328 78.2734 223.602 74.9688 223.602 71.1406C223.602 67.4219 224.336 64.1719 225.805 61.3906C227.273 58.5938 229.344 56.4219 232.016 54.875C234.688 53.3125 237.836 52.5312 241.461 52.5312C244.023 52.5312 246.367 52.9297 248.492 53.7266C250.617 54.5234 252.453 55.7031 254 57.2656C255.547 58.8281 256.75 60.7578 257.609 63.0547C258.469 65.3359 258.898 67.9531 258.898 70.9062V73.7656H227.609V67.1094H248.234C248.219 65.8906 247.93 64.8047 247.367 63.8516C246.805 62.8984 246.031 62.1563 245.047 61.625C244.078 61.0781 242.961 60.8047 241.695 60.8047C240.414 60.8047 239.266 61.0937 238.25 61.6719C237.234 62.2344 236.43 63.0078 235.836 63.9922C235.242 64.9609 234.93 66.0625 234.898 67.2969V74.0703C234.898 75.5391 235.188 76.8281 235.766 77.9375C236.344 79.0312 237.164 79.8828 238.227 80.4922C239.289 81.1016 240.555 81.4062 242.023 81.4062C243.039 81.4062 243.961 81.2656 244.789 80.9844C245.617 80.7031 246.328 80.2891 246.922 79.7422C247.516 79.1953 247.961 78.5234 248.258 77.7266L258.781 78.0312C258.344 80.3906 257.383 82.4453 255.898 84.1953C254.43 85.9297 252.5 87.2812 250.109 88.25C247.719 89.2031 244.953 89.6797 241.812 89.6797Z" fill="white"/>
<defs>
<linearGradient id="paint0_linear_301_5" x1="142.5" y1="0" x2="142.5" y2="131" gradientUnits="userSpaceOnUse">
<stop stop-color="#FF5A1F"/>
<stop offset="1" stop-color="#F43F5E"/>
</linearGradient>
</defs>
</svg>
